<svg width="1280" height="720" viewBox="0 0 1280 720" fill="none" xmlns="http://www.w3.org/2000/svg">
  <rect width="1280" height="720" rx="48" fill="#020617"/>
  <rect x="52" y="52" width="1176" height="616" rx="36" fill="#0F172A" stroke="#1E293B"/>
  <rect x="96" y="104" width="1088" height="72" rx="24" fill="#111827" stroke="#334155"/>
  <circle cx="140" cy="140" r="10" fill="#38BDF8"/>
  <circle cx="176" cy="140" r="10" fill="#22C55E"/>
  <circle cx="212" cy="140" r="10" fill="#F59E0B"/>
  <rect x="96" y="224" width="336" height="380" rx="28" fill="#0B1120" stroke="#1E293B"/>
  <rect x="472" y="224" width="320" height="180" rx="28" fill="#0B1120" stroke="#0EA5E9"/>
  <rect x="824" y="224" width="360" height="180" rx="28" fill="#0B1120" stroke="#38BDF8"/>
  <rect x="472" y="432" width="712" height="172" rx="28" fill="#0B1120" stroke="#1E293B"/>
  <path d="M134 286H262" stroke="#7DD3FC" stroke-width="12" stroke-linecap="round"/>
  <path d="M134 330H366" stroke="#334155" stroke-width="10" stroke-linecap="round"/>
  <path d="M134 364H328" stroke="#334155" stroke-width="10" stroke-linecap="round"/>
  <path d="M134 440H366" stroke="#38BDF8" stroke-width="10" stroke-linecap="round"/>
  <path d="M520 284H690" stroke="#7DD3FC" stroke-width="12" stroke-linecap="round"/>
  <path d="M872 284H1046" stroke="#7DD3FC" stroke-width="12" stroke-linecap="round"/>
  <path d="M526 506C586 452 638 472 700 448C762 424 816 500 882 500C948 500 980 460 1042 460C1089.33 460 1129.33 473.333 1162 500" stroke="#38BDF8" stroke-width="10" stroke-linecap="round" stroke-linejoin="round"/>
  <text x="96" y="632" fill="#E2E8F0" font-family="Arial, sans-serif" font-size="56" font-weight="700">viewra</text>
  <text x="96" y="672" fill="#7DD3FC" font-family="Arial, sans-serif" font-size="24">Markdown-driven personal showcase</text>
</svg>
